:SAMPLES-PER-SECOND 30
:FULLY-SPECIFIED
:DEGREES
22
root  2.06429 40.4428 2.76984 6.50955 -86.6142 -11.7009
RightUpLeg  3.2672 -7.23724 -3.84516
RightLeg  2.23095 -6.95824 0.129629
RightFoot  1.90759 -0.819992 7.16342
RightToes  -1.16417e-010 0 -3.6325e-017
Spine  7.58708 -0.645689 2.62286
Spine1  4.69839 -0.192921 -1.26593
HEad  -11.5018 -15.0735 -0.838956
LeftShoulder1  2.81524 -7.31965 -19.5334
LeftArm  8.59796 1.27386 -54.9542
LeftForeArm  6.33067 -7.41506 -14.8468
LeftHand  -0.298952 2.08107 10.298
RightShoulder  1.69296 3.35831 18.1719
RightArm  -1.67786 -3.30079 56.5117
RightForeArm  29.6564 0.447445 15.5345
RightHand  -0.328422 -2.35477 -12.2869
LeftUpLeg  4.11426 8.89598 8.57528
LeftLeg  1.92898 -0.760836 1.66817
LeftFoot  0.478902 1.13964 -11.012
LeftToes  6.91183e-011 3.39355e-011 2.1261e-011
23
root  2.10648 40.4591 3.02377 8.93442 -87.3321 -14.0687
RightUpLeg  3.27736 -7.26616 -4.22111
RightLeg  1.71174 -6.20011 0.15136
RightFoot  2.3929 -0.883371 7.46071
RightToes  -1.16417e-010 0 -3.6325e-017
Spine  7.75323 -0.40952 2.66909
Spine1  4.62827 0.184355 -1.94564
HEad  -11.674 -14.7431 -0.962546
LeftShoulder1  2.83498 -7.30087 -19.7782
LeftArm  8.65781 1.29722 -54.27
LeftForeArm  5.47446 -7.83894 -14.6831
LeftHand  -0.327644 1.92245 10.8153
RightShoulder  1.71412 3.43144 18.2203
RightArm  0.342439 -3.08226 57.2441
RightForeArm  30.1009 0.417785 15.8112
RightHand  -0.292142 -2.54619 -11.5925
LeftUpLeg  4.06163 8.90288 8.19029
LeftLeg  2.21321 0.0357144 1.55876
LeftFoot  0.239392 1.05807 -10.4288
LeftToes  6.91183e-011 3.39355e-011 2.1261e-011
24
root  2.1399 40.471 3.26237 12.5472 -88.0865 -17.4594
RightUpLeg  3.01463 -7.26321 -4.56941
RightLeg  1.3692 -5.44212 0.124763
RightFoot  2.81421 -0.9457 7.76036
RightToes  -1.16417e-010 0 -3.6325e-017
Spine  7.70781 -0.183359 2.40633
Spine1  4.56482 0.467506 -2.31738
HEad  -11.7305 -14.2318 -1.1375
LeftShoulder1  2.83057 -7.27329 -19.8063
LeftArm  8.3256 1.52345 -53.8323
LeftForeArm  4.96986 -7.97934 -14.6011
LeftHand  -0.351965 1.82976 11.352
RightShoulder  1.72468 3.45081 18.3104
RightArm  2.80416 -2.68602 57.8916
RightForeArm  30.2784 0.79201 16.0452
RightHand  -0.253357 -2.79059 -10.9035
LeftUpLeg  3.87602 8.76501 7.7089
LeftLeg  2.40359 1.00616 1.55891
LeftFoot  0.0626787 1.00801 -10.0818
LeftToes  6.91183e-011 3.39355e-011 2.1261e-011
25
root  2.16744 40.4783 3.4952 19.1368 -88.7771 -23.8374
RightUpLeg  2.72668 -7.27353 -4.92241
RightLeg  1.12131 -4.68181 0.0877521
RightFoot  3.18139 -1.00808 8.06992
RightToes  -1.16417e-010 0 -3.6325e-017
Spine  7.64407 -0.0222641 2.00844
Spine1  4.51304 0.639821 -2.51467
HEad  -11.7273 -13.6679 -1.17145
LeftShoulder1  2.81297 -7.24571 -19.7028
LeftArm  7.63042 1.9103 -53.5642
LeftForeArm  4.86428 -7.90092 -14.568
LeftHand  -0.344739 1.92773 11.413
RightShoulder  1.71303 3.41696 18.2594
RightArm  4.58909 -2.33245 58.5825
RightForeArm  30.1982 1.47426 16.1059
RightHand  -0.232968 -2.93457 -10.5462
LeftUpLeg  3.66585 8.58366 7.21376
LeftLeg  2.62988 1.95561 1.60291
LeftFoot  -0.158203 0.964747 -9.82783
LeftToes  6.91183e-011 3.39355e-011 2.1261e-011
26
root  2.19587 40.4792 3.73509 41.0226 -89.3457 -45.5953
RightUpLeg  2.48916 -7.33584 -5.31038
RightLeg  0.973438 -3.91179 0.0678674
RightFoot  3.49073 -1.07233 8.40799
RightToes  -1.16417e-010 0 -3.6325e-017
Spine  7.67746 0.054649 1.71385
Spine1  4.45776 0.741631 -2.75348
HEad  -11.6444 -13.1259 -1.12865
LeftShoulder1  2.80059 -7.21148 -19.6686
LeftArm  6.75326 2.27751 -53.2591
LeftForeArm  5.35142 -7.54471 -14.6152
LeftHand  -0.322705 2.06163 11.0833
RightShoulder  1.69567 3.38199 18.1225
RightArm  5.67676 -2.10878 59.1986
RightForeArm  29.4117 2.48324 15.9956
RightHand  -0.239692 -2.87623 -10.6185
LeftUpLeg  3.47404 8.46781 6.75662
LeftLeg  2.96417 2.78741 1.59713
LeftFoot  -0.475868 0.901146 -9.43086
LeftToes  6.91183e-011 3.39355e-011 2.1261e-011
27
root  2.2282 40.4735 3.98074 99.0654 -89.5803 -103.555
RightUpLeg  2.25382 -7.42548 -5.71161
RightLeg  0.904797 -3.17165 0.0606549
RightFoot  3.75768 -1.13736 8.7602
RightToes  -1.16417e-010 0 -3.6325e-017
Spine  7.80821 0.0885572 1.60205
Spine1  4.34839 0.841744 -3.15715
HEad  -11.44 -12.5915 -1.21756
LeftShoulder1  2.79232 -7.16345 -19.7116
LeftArm  5.65231 2.43188 -52.9139
LeftForeArm  6.72199 -6.65841 -14.8269
LeftHand  -0.313835 2.10167 10.897
RightShoulder  1.68733 3.36192 18.0689
RightArm  7.21789 -1.98486 59.5868
RightForeArm  27.2986 3.99999 15.7719
RightHand  -0.26636 -2.67285 -11.003
LeftUpLeg  3.28623 8.40378 6.33016
LeftLeg  3.35422 3.52797 1.56231
LeftFoot  -0.801931 0.838521 -9.02755
LeftToes  6.91183e-011 3.39355e-011 2.1261e-011
28
root  2.25618 40.465 4.22302 152.816 -89.1938 -157.227
RightUpLeg  2.03181 -7.50459 -6.09495
RightLeg  0.814258 -2.48476 0.0480283
RightFoot  4.01579 -1.20084 9.09331
RightToes  -1.16417e-010 0 -3.6325e-017
Spine  7.93459 0.127504 1.58196
Spine1  4.2365 0.964174 -3.63369
HEad  -11.1448 -11.9772 -1.38892
LeftShoulder1  2.78267 -7.11404 -19.7448
LeftArm  4.23233 2.38138 -52.6575
LeftForeArm  8.6585 -5.25816 -15.146
LeftHand  -0.313658 2.14182 11.0215
RightShoulder  1.67917 3.31845 18.1096
RightArm  9.74992 -1.85907 59.7684
RightForeArm  24.1454 5.91992 15.421
RightHand  -0.300348 -2.43503 -11.4981
LeftUpLeg  3.10334 8.3632 5.93387
LeftLeg  3.73919 4.1807 1.52233
LeftFoot  -1.08968 0.792664 -8.75319
LeftToes  6.91183e-011 3.39355e-011 2.1261e-011
29
root  2.26876 40.4563 4.45464 164.57 -88.6644 -168.897
RightUpLeg  1.82367 -7.5657 -6.46846
RightLeg  0.722033 -1.83424 0.00530237
RightFoot  4.24641 -1.26223 9.41519
RightToes  -1.16417e-010 0 -3.6325e-017
Spine  7.92295 0.185742 1.53469
Spine1  4.25401 1.08763 -4.01605
HEad  -10.8247 -11.1352 -1.38171
LeftShoulder1  2.78282 -7.09587 -19.7945
LeftArm  2.58318 2.35713 -52.4836
LeftForeArm  10.396 -3.82996 -15.365
LeftHand  -0.308042 2.2342 11.1249
RightShoulder  1.65775 3.23063 18.1132
RightArm  12.503 -1.61736 59.8638
RightForeArm  21.1738 7.76727 14.9413
RightHand  -0.335697 -2.15625 -11.8209
LeftUpLeg  2.95555 8.33606 5.54921
LeftLeg  4.0645 4.76649 1.45848
LeftFoot  -1.3721 0.749076 -8.48435
LeftToes  6.91183e-011 3.39355e-011 2.1261e-011
30
root  2.26664 40.4485 4.67268 170.953 -88.1847 -175.2
RightUpLeg  1.61054 -7.6153 -6.84885
RightLeg  0.703329 -1.23553 -0.083562
RightFoot  4.42714 -1.32455 9.7626
RightToes  -1.16417e-010 0 -3.6325e-017
Spine  7.77402 0.246479 1.43899
Spine1  4.41204 1.19244 -4.27835
HEad  -10.4866 -9.96325 -1.15721
LeftShoulder1  2.80515 -7.13309 -19.9212
LeftArm  0.983355 2.57156 -52.2775
LeftForeArm  11.5793 -2.8761 -15.3764
LeftHand  -0.301996 2.27221 11.0288
RightShoulder  1.62941 3.13337 18.0422
RightArm  14.5318 -1.21811 59.9119
RightForeArm  19.341 9.13017 14.4527
RightHand  -0.368836 -1.81122 -11.7993
LeftUpLeg  2.87981 8.27359 5.12565
LeftLeg  4.26074 5.36606 1.39662
LeftFoot  -1.62764 0.705402 -8.17854
LeftToes  6.91183e-011 3.39355e-011 2.1261e-011
